# xmcd
#
# Track frame offsets:
#	150
#	14316
#	28227
#	41215
#	56999
#	72588
#	84506
#	101493
#	117439
#	137757
#	152880
#	179803
#	194093
#	212581
#	229165
#	245202
#	253796
#
# Disc length: 3704 seconds
#
# Revision: 0
# Processed by: cddbd v1.5.2PL0 Copyright (c) Steve Scherf et al.
# Submitted via: EasyCDDAExtractor 16.0.9.1
#
DISCID=0e0e7611
DTITLE=Abraham Ezequiel - Ha nacido un Niño...
DYEAR=1900
DGENRE=
TTITLE0=Los peces en el rio
TTITLE1=Blanca Navidad
TTITLE2=Burrito Sabanero
TTITLE3=Campana sobre campana
TTITLE4=Ven a cantar
TTITLE5=Ande la marimorena
TTITLE6=Los pastores a Belén
TTITLE7=Gloria
TTITLE8=Ha nacido un niño
TTITLE9=Alegres de corazón
TTITLE10=Admirable Consejero
TTITLE11=Niño del tambor
TTITLE12=Nadie se lo imagino
TTITLE13=Noche de Paz
TTITLE14=Invitado especial
TTITLE15=Duerme, mi pequeño
TTITLE16=Pedir posada
EXTD=
EXTT0=
EXTT1=
EXTT2=
EXTT3=
EXTT4=
EXTT5=
EXTT6=
EXTT7=
EXTT8=
EXTT9=
EXTT10=
EXTT11=
EXTT12=
EXTT13=
EXTT14=
EXTT15=
EXTT16=
PLAYORDER=
